# xmcd
#
# Track frame offsets: 
#        183
#        21995
#        43938
#        69820
#        95025
#        120923
#        139980
#        162695
#        181563
#        200635
#        230473
#
# Disc length: 3373 seconds
#
# Revision: 4
# Processed by: cddbd v1.5.2PL0 Copyright (c) Steve Scherf et al.
# Submitted via: ExactAudioCopyFreeDBPlugin 1.0
#
DISCID=970d2b0b
DTITLE=Luther Allison - Rich Man
DYEAR=1900
DGENRE=Blues
TTITLE0=Chicago
TTITLE1=Rich Man
TTITLE2=Love Is Free
TTITLE3=Cold As Ice
TTITLE4=Freedom
TTITLE5=Fight
TTITLE6=Mistake
TTITLE7=Get Down
TTITLE8=Cry (Crying for Peace)
TTITLE9=You Don't Love Me
TTITLE10=Sweet Home Chicago
EXTD=
EXTT0=
EXTT1=
EXTT2=
EXTT3=
EXTT4=
EXTT5=
EXTT6=
EXTT7=
EXTT8=
EXTT9=
EXTT10=
PLAYORDER=
